<?xml version="1.0" encoding="utf-8"?>
<!-- Generator: Adobe Illustrator 14.0.0, SVG Export Plug-In . SVG Version: 6.00 Build 43363)  -->
<!DOCTYPE svg PUBLIC "-//W3C//DTD SVG 1.1//EN" "http://www.w3.org/Graphics/SVG/1.1/DTD/svg11.dtd">
<svg version="1.1" id="Calque_1" xmlns="http://www.w3.org/2000/svg" xmlns:xlink="http://www.w3.org/1999/xlink" x="0px" y="0px"
	 width="744.626px" height="492.404px" viewBox="24.139 51.705 744.626 492.404"
	 enable-background="new 24.139 51.705 744.626 492.404" xml:space="preserve">
<g>
	<g>
		<g>
			<path fill="#FFFFFF" d="M563.135,452.468c-7.236-25.88-15.179-51.054-22.469-76.876c-20.104,0-40.21,0-60.319,0
				c-0.494,0.162-0.806,0.508-0.787,1.186c-2.993,17.918-5.979,35.848-8.97,53.776c-0.329-1.963-0.723-3.859-1.192-5.649
				c-9.033-34.35-39.021-54.578-82-52.037c-13.867,0.82-26.449,3.582-37.45,7.883c-31.278,12.227-54.686,35.486-61.894,71.749
				c-0.715,3.593-1.212,7.098-1.513,10.507c-5.195-29.101-10.327-58.268-15.45-87.443c-19.712,0-39.424,0-59.135,0
				c-8.332,16.172-16.673,32.338-25.004,48.514c0.026-3.979-0.325-7.984-1.114-11.932c-2.739-13.688-11.192-24.942-23.26-30.746
				c-23.713-11.412-64.541-2.742-97.373-5.521c-9.802,54.717-18.587,110.456-27.99,165.574c19.318,0,38.636,0,57.953,0
				c2.58-17.655,5.667-34.808,8.671-52.036c23.793,1.165,42.498-3.519,56.278-13.105c-11.031,21.553-22.015,43.146-32.917,64.824
				c19.974,0,39.948,0,59.921,0c4.309-8.176,7.466-17.504,12.222-25.229c12.613,0.265,26.279-0.524,38.239,0.396
				c1.348,7.98,1.987,16.67,3.152,24.834c19.843-0.263,40.736,0.524,59.921-0.394c-2.157-11.632-4.291-23.29-6.412-34.96
				c2.883,5.708,6.407,10.827,10.368,15.312c14.161,16.039,36.731,24.252,65.833,22.866c41.024-1.954,73.46-21.053,89.958-52.495
				c-2.791,16.588-5.598,33.165-8.441,49.704c19.843,0,39.69,0,59.533,0c4.602-25.621,8.043-52.4,13.401-77.269
				c7.104,26.143,15.212,51.279,22.469,77.269c20.371,0,40.741,0,61.107,0c8.833-55.553,18.278-110.501,27.595-165.575
				c-19.845,0-39.687,0-59.525,0C571.945,401.092,568.562,427.798,563.135,452.468z M107.019,446.081c2.314-10.202,0,0,5.929-31.619
				C142.807,409.455,135.269,452.261,107.019,446.081z M206.548,481.796c20.093-46.165,13.911-30.259,20.093-46.165
				c5.432,46.165,3.747,30.653,5.432,46.165C223.565,481.796,215.052,481.796,206.548,481.796z M389.387,477.448
				c-4.102,3.62-10.744,6.122-16.458,5.9c-5.706-0.223-10.485-3.161-13.272-7.901c-8.528-14.503,0.879-37.272,12.006-42.873
				c1.944-0.981,4.779-1.675,7.718-2.002c8.305-0.934,14.271,2.048,17.438,7.43C404.176,450.518,397.594,470.203,389.387,477.448z"
				/>
		</g>
	</g>
	<g>
		<path fill="#FFFFFF" d="M667.695,376.701c-4.523,34.001-9.116,67.938-13.291,102.29c15.63,0,31.264,0,46.897,0
			c6.698-34.656,14.153-68.563,20.679-103.397c-17.976,0-35.942,0-53.912,0C667.636,375.657,667.666,376.177,667.695,376.701z"/>
	</g>
	<g>
		<path fill="#FFFFFF" d="M676.931,489.125c-8.004,0.103-13.471,1.854-18.465,5.173c-5.158,3.425-7.812,5.3-11.081,11.817
			c-6.785,13.541-0.11,28.733,11.081,32.863c16.178,5.977,34.392-3.886,40.248-16.615c2.384-5.181,3.584-13.363,0.739-20.312
			C696.716,495.355,688.182,488.984,676.931,489.125z"/>
	</g>
	<g>
		<path fill="#FFFFFF" d="M710.98,268.125c-60.487,0-108.688-28.322-32.316-116.529c-39.068,22.076-67.867,31.226-88.583,31.226
			c-49.271,0-52.817-51.783-39.896-104.641c-26.859,40.051-53.188,55.357-76.438,55.357c-38.098,0-67.939-41.108-78.286-81.833
			c-8.592,43.365-35.351,89.787-72.792,89.787c-22.6,0-49.092-16.923-77.823-61.642c4.236,52.21-16.971,102.307-60.062,102.307
			c-19.144,0-42.617-9.899-70.083-33.897c26.471,59.557,39.982,126.552-23.786,126.552c-16.625,0-38.508-4.558-66.774-14.986
			c46.007,43.066,53.706,71.628,40.982,90.316h35.363c4.3-14.8,2.776-29.463-1.971-43.188c32.548-2.146,49.649-17.976,58.377-31.406
			c10.502-16.161,14.256-37.167,11.195-62.537c5.63,1.021,11.2,1.535,16.695,1.535c23.657,0,44.812-9.381,61.178-27.126
			c8.593-9.321,15.604-20.883,20.833-33.992c18.071,13.603,36.739,20.452,55.875,20.452c27.558,0,53.611-14.885,73.361-41.91
			c0.962-1.316,1.908-2.659,2.841-4.027c19.147,22.347,44.605,37.983,74.875,37.983c14.125,0,27.86-3.319,41.151-9.924
			c2.819,11.612,7.57,22.494,14.93,31.868c9.791,12.472,28.191,27.339,60.254,27.339c5.698,0,11.645-0.474,17.857-1.431
			c-2.301,14.57-0.642,28.101,4.979,40.401c11.044,24.161,35.929,39.544,71.266,44.549c-8.197,18.522-6.971,34.499-3.901,45.554
			c0.548,1.983,1.198,3.938,1.932,5.858h37.33c-18.458-21.42-12.519-52.47,49.224-89.577
			C750.661,265.269,730.203,268.125,710.98,268.125z"/>
	</g>
	<g>
		<g>
			<path fill="#FFFFFF" d="M398.146,168.501c-15.306,0.024-27.686,19.354-27.648,43.173c0.027,16.3,12.448,24.714,27.756,24.691
				c15.309-0.022,27.706-8.476,27.682-24.776C425.896,187.77,413.461,168.479,398.146,168.501z M406.728,225.91
				c-2.566,1.146-5.471-5.846-8.654-5.901c-3.071-0.055-6.042,6.874-8.516,5.717c-5.145-2.41-8.563-6.857-8.472-11.88
				c0.131-7.442,7.912-13.336,17.375-13.166c9.465,0.174,17.027,6.34,16.892,13.783C415.261,219.399,411.812,223.656,406.728,225.91
				z"/>
		</g>
	</g>
	<g>
		<g>
			<path fill="#FFFFFF" d="M320.915,262.899c13.932-6.344,21.732-19.163,14.979-33.996c-9.87-21.678-29.167-34.108-43.1-27.767
				c-13.933,6.346-17.225,29.06-7.354,50.739C292.193,266.71,306.983,269.244,320.915,262.899z M306.367,230.314
				c8.69-3.753,18.125-1.259,21.076,5.576c1.956,4.533,0.569,9.834-3.126,13.986c-1.869,2.106-7.397-3.065-10.32-1.801
				c-2.82,1.219-2.662,8.756-5.396,8.726c-5.682-0.07-10.631-2.707-12.622-7.322C293.026,242.648,297.676,234.067,306.367,230.314z"
				/>
		</g>
	</g>
	<g>
		<g>
			<path fill="#FFFFFF" d="M250.885,301.02c11.399-10.22,15.012-24.783,4.132-36.919c-15.896-17.737-38.025-23.833-49.428-13.616
				c-11.398,10.219-7.752,32.88,8.147,50.616C224.616,313.236,239.485,311.236,250.885,301.02z M227.26,274.27
				c7.175-6.178,16.923-6.618,21.779-0.979c3.225,3.74,3.485,9.213,1.197,14.283c-1.153,2.567-7.976-0.713-10.385,1.365
				c-2.327,2.008,0.078,9.151-2.541,9.94c-5.443,1.631-10.955,0.594-14.231-3.215C218.216,290.028,220.09,280.45,227.26,274.27z"/>
		</g>
	</g>
	<g>
		<g>
			<path fill="#FFFFFF" d="M280.518,341.289c6.417,10.574,17.786,11.162,27.72,5.133c9.928-6.023,14.661-16.382,8.244-26.953
				c-9.373-15.455-25.026-23.097-34.96-17.07C271.589,308.422,271.143,325.837,280.518,341.289z M294.358,323.167
				c6.213-3.601,13.547-2.563,16.379,2.321c1.883,3.238,1.312,7.356-1.103,10.818c-1.221,1.754-5.848-1.65-7.938-0.438
				c-2.018,1.175-1.225,6.839-3.287,7.059c-4.285,0.455-8.254-1.089-10.164-4.389C285.408,333.656,288.148,326.775,294.358,323.167z
				"/>
		</g>
	</g>
	<g>
		<g>
			<path fill="#FFFFFF" d="M503.845,302.396c-9.932-6.024-25.585,1.617-34.958,17.071c-6.417,10.571-1.685,20.931,8.246,26.953
				c9.933,6.029,21.3,5.44,27.716-5.133C514.228,325.837,513.781,308.422,503.845,302.396z M497.123,338.54
				c-1.908,3.3-5.878,4.844-10.164,4.388c-2.062-0.219-1.271-5.883-3.286-7.058c-2.093-1.214-6.718,2.19-7.94,0.438
				c-2.412-3.463-2.984-7.58-1.103-10.819c2.834-4.886,10.164-5.923,16.382-2.321C497.224,326.775,499.962,333.656,497.123,338.54z"
				/>
		</g>
	</g>
	<g>
		<g>
			<path fill="#FFFFFF" d="M352.318,264.428c-11.154,3.247-16.104,19.946-11.05,37.303c3.456,11.879,14.287,15.393,25.438,12.146
				c11.154-3.245,18.409-12.022,14.952-23.9C376.609,272.621,363.472,261.181,352.318,264.428z M374.553,294.301
				c0.977,3.619-0.644,7.449-3.871,10.165c-1.633,1.379-5.223-3.106-7.557-2.476c-2.25,0.605-2.949,6.285-5,5.966
				c-4.259-0.675-7.69-3.194-8.683-6.876c-1.475-5.454,2.953-11.39,9.889-13.262C366.268,285.947,373.081,288.848,374.553,294.301z"
				/>
		</g>
	</g>
	<g>
		<g>
			<path fill="#FFFFFF" d="M404.228,289.975c-3.455,11.876,3.802,20.655,14.95,23.9c11.154,3.247,21.988-0.268,25.443-12.145
				c5.048-17.356,0.103-34.057-11.052-37.304C422.415,261.18,409.282,272.621,404.228,289.975z M426.556,287.818
				c6.938,1.873,11.363,7.809,9.889,13.262c-0.99,3.682-4.422,6.201-8.685,6.876c-2.048,0.319-2.747-5.358-5-5.966
				c-2.329-0.631-5.921,3.854-7.552,2.476c-3.232-2.716-4.849-6.546-3.873-10.165C412.806,288.848,419.621,285.947,426.556,287.818z
				"/>
		</g>
	</g>
	<g>
		<g>
			<path fill="#FFFFFF" d="M499.554,201.136c-13.983-6.341-33.351,6.089-43.263,27.767c-6.781,14.833,1.048,27.652,15.037,33.996
				c13.983,6.344,28.827,3.811,35.608-11.024C516.844,230.196,513.544,207.482,499.554,201.136z M496.355,249.479
				c-1.995,4.615-6.966,7.252-12.67,7.322c-2.741,0.03-2.582-7.507-5.416-8.726c-2.932-1.264-8.479,3.907-10.357,1.801
				c-3.709-4.152-5.102-9.454-3.136-13.986c2.961-6.834,12.431-9.329,21.152-5.576C494.657,234.067,499.321,242.648,496.355,249.479
				z"/>
		</g>
	</g>
	<g>
		<g>
			<path fill="#FFFFFF" d="M587.092,250.483c-11.442-10.217-33.654-4.121-49.614,13.616c-10.921,12.137-7.295,26.7,4.146,36.92
				c11.446,10.217,26.371,12.217,37.291,0.08C594.872,283.363,598.537,260.702,587.092,250.483z M569.537,295.664
				c-3.291,3.809-8.823,4.846-14.289,3.215c-2.627-0.789-0.214-7.932-2.549-9.94c-2.417-2.078-9.267,1.203-10.428-1.365
				c-2.295-5.07-2.032-10.542,1.204-14.283c4.874-5.64,14.659-5.199,21.863,0.979C572.537,280.45,574.415,290.028,569.537,295.664z"
				/>
		</g>
	</g>
	<g>
		<path fill="#FFFFFF" d="M142.772,325.674c-3.765,7.08-2.472,15.943,2.628,24.387h23.252c0.058-3.102,0.922-6.398,2.652-9.509
			c4.608-8.269,13.61-12.034,20.111-8.411c4.315,2.402,6.444,7.452,6.041,12.996c-0.202,2.812-0.287,3.18-0.657,5.004
			c-0.006,0.023,8.914-0.08,8.914-0.08c3.146-11.233-0.08-22.35-11.848-28.605C172.837,310.27,149.961,312.159,142.772,325.674z"/>
	</g>
	<g>
		<path fill="#FFFFFF" d="M601.318,332.141c6.527-3.623,15.562,0.144,20.188,8.411c1.736,3.109,2.606,6.407,2.664,9.509h23.338
			c5.12-8.442,6.416-17.307,2.641-24.387c-7.219-13.515-30.182-15.404-51.29-4.22c-11.812,6.257-15.048,17.372-11.893,28.606h4.062
			c-0.011-0.021,4.736,0.088,4.736,0.064c-0.354-3.01-0.311-2.18-0.51-4.99C594.847,339.593,596.983,334.543,601.318,332.141z"/>
	</g>
</g>
</svg>
